<svg width="1342" height="570" viewBox="0 0 1342 570" fill="none" xmlns="http://www.w3.org/2000/svg">
<path d="M863.765 527.766C863.765 529.771 862.137 531.399 860.133 531.399C858.128 531.399 856.5 529.771 856.5 527.766C856.5 525.761 858.128 524.133 860.133 524.133C862.137 524.133 863.765 525.757 863.765 527.766Z" stroke="#4D2C5E" stroke-opacity="0.1" stroke-width="1.5" stroke-miterlimit="10" stroke-linecap="round" stroke-linejoin="round"/>
<path d="M899.01 559.272C901.016 559.272 902.643 557.646 902.643 555.64C902.643 553.633 901.016 552.007 899.01 552.007C897.004 552.007 895.377 553.633 895.377 555.64C895.377 557.646 897.004 559.272 899.01 559.272Z" stroke="#4D2C5E" stroke-opacity="0.1" stroke-width="1.5" stroke-miterlimit="10" stroke-linecap="round" stroke-linejoin="round"/>
<path d="M885.333 548.171C889.612 548.171 893.081 544.703 893.081 540.424C893.081 536.145 889.612 532.676 885.333 532.676C881.054 532.676 877.586 536.145 877.586 540.424C877.586 544.703 881.054 548.171 885.333 548.171Z" stroke="#4D2C5E" stroke-opacity="0.1" stroke-width="1.5" stroke-miterlimit="10" stroke-linecap="round" stroke-linejoin="round"/>
<path d="M898.832 540.424L896.248 544.94L894.878 549.968L889.854 551.334L885.333 553.923L880.813 551.334L875.784 549.968L874.418 544.94L871.83 540.424L874.418 535.903L875.784 530.875L880.813 529.509L885.333 526.92L889.854 529.509L894.878 530.875L896.248 535.903L898.832 540.424Z" stroke="#4D2C5E" stroke-opacity="0.1" stroke-width="1.5" stroke-miterlimit="10" stroke-linecap="round" stroke-linejoin="round"/>
<path d="M895.377 555.64C895.377 553.635 897.005 552.007 899.01 552.007C900.093 552.007 901.065 552.485 901.729 553.238C904.495 549.702 906.148 545.257 906.148 540.419C906.148 528.921 896.828 519.6 885.329 519.6C873.83 519.6 864.51 528.921 864.51 540.419C864.51 551.918 873.83 561.239 885.329 561.239C889.372 561.239 893.14 560.084 896.333 558.092C895.745 557.445 895.377 556.587 895.377 555.64Z" stroke="#4D2C5E" stroke-opacity="0.1" stroke-width="1.5" stroke-miterlimit="10" stroke-linecap="round" stroke-linejoin="round"/>
<path d="M885.333 512.25C875.619 512.25 867.051 517.168 861.989 524.649C863.051 525.284 863.765 526.443 863.765 527.77C863.765 529.775 862.137 531.403 860.133 531.403C859.638 531.403 859.169 531.302 858.741 531.124C857.722 534.038 857.164 537.163 857.164 540.424C857.164 555.982 869.779 568.597 885.338 568.597C900.896 568.597 913.511 555.982 913.511 540.424C913.511 524.865 900.892 512.25 885.333 512.25Z" stroke="#4D2C5E" stroke-opacity="0.1" stroke-width="1.5" stroke-miterlimit="10" stroke-linecap="round" stroke-linejoin="round"/>
<path d="M969.631 60.1693L952.151 54.2327C950.304 53.607 949.318 51.5998 949.944 49.7527C950.57 47.9056 952.577 46.9196 954.419 47.5453L971.898 53.4819C973.745 54.1076 974.732 56.1148 974.106 57.9569C973.48 59.8089 971.478 60.8 969.631 60.1693Z" stroke="#4D2C5E" stroke-opacity="0.1" stroke-width="2.25" stroke-miterlimit="10"/>
<path d="M967.333 66.9368L949.854 61.0002C948.007 60.3745 947.021 58.3672 947.646 56.5252C948.272 54.6781 950.279 53.692 952.126 54.3177L969.606 60.2493C971.453 60.875 972.439 62.8823 971.813 64.7293C971.183 66.5764 969.18 67.5625 967.333 66.9368Z" stroke="#4D2C5E" stroke-opacity="0.1" stroke-width="2.25" stroke-miterlimit="10"/>
<path d="M951.796 29.2898C951.816 29.3499 951.831 29.4049 951.851 29.465C952.241 30.7114 954.544 38.6102 953.583 47.375L972.334 53.5619C976.779 45.9484 983.331 40.9778 984.387 40.207C984.437 40.1719 984.487 40.1369 984.532 40.1019C985.043 39.7365 985.539 39.346 986.019 38.9305C988.842 36.4928 991.065 33.2843 992.316 29.49C996.005 18.3176 989.938 6.26914 978.766 2.58003C967.594 -1.10909 955.545 4.95768 951.856 16.1301C950.6 19.9294 950.474 23.8287 951.295 27.4678C951.436 28.0785 951.601 28.6891 951.796 29.2898Z" stroke="#4D2C5E" stroke-opacity="0.1" stroke-width="2.25" stroke-miterlimit="10"/>
<path d="M950.81 61.4106C950.6 65.1148 952.882 68.6437 956.576 69.865C960.22 71.0664 964.1 69.6398 966.162 66.6214L950.81 61.4106Z" stroke="#4D2C5E" stroke-opacity="0.1" stroke-width="2.25" stroke-miterlimit="10"/>
<path d="M959.454 49.2121L965.026 32.3282C965.576 30.6664 964.67 28.8744 963.008 28.3238C961.347 27.7732 959.555 28.6792 959.004 30.341C958.453 32.0029 959.359 33.7949 961.021 34.3455L967.709 36.553" stroke="#4D2C5E" stroke-opacity="0.1" stroke-width="2.25" stroke-miterlimit="10"/>
<path d="M966.803 51.6397L972.374 34.7559C972.925 33.094 974.717 32.193 976.378 32.7386C978.04 33.2892 978.941 35.0812 978.396 36.7431C977.845 38.4049 976.053 39.306 974.391 38.7603L967.704 36.5529" stroke="#4D2C5E" stroke-opacity="0.1" stroke-width="2.25" stroke-miterlimit="10"/>
<path d="M996.276 35.3066L1001.92 37.1737" stroke="#4D2C5E" stroke-opacity="0.1" stroke-width="2.25" stroke-miterlimit="10" stroke-linecap="round"/>
<path d="M998.864 28.1936L1004.75 27.3076" stroke="#4D2C5E" stroke-opacity="0.1" stroke-width="2.25" stroke-miterlimit="10" stroke-linecap="round"/>
<path d="M992.326 41.4084L996.521 45.6231" stroke="#4D2C5E" stroke-opacity="0.1" stroke-width="2.25" stroke-miterlimit="10" stroke-linecap="round"/>
<path d="M943.832 17.9973L938.186 16.1353" stroke="#4D2C5E" stroke-opacity="0.1" stroke-width="2.25" stroke-miterlimit="10" stroke-linecap="round"/>
<path d="M945.989 10.7391L941.795 6.52441" stroke="#4D2C5E" stroke-opacity="0.1" stroke-width="2.25" stroke-miterlimit="10" stroke-linecap="round"/>
<path d="M943.377 25.2502L937.5 26.1362" stroke="#4D2C5E" stroke-opacity="0.1" stroke-width="2.25" stroke-miterlimit="10" stroke-linecap="round"/>
<path d="M792.745 118.934L740.841 103.429C737.066 102.303 734.924 98.33 736.05 94.555L746.416 59.8413C747.542 56.0664 751.515 53.9237 755.29 55.05L807.193 70.5546C810.968 71.6809 813.111 75.6539 811.985 79.4288L801.619 114.143C800.488 117.913 796.515 120.06 792.745 118.934Z" stroke="#4D2C5E" stroke-opacity="0.1" stroke-width="3" stroke-miterlimit="10" stroke-linecap="round"/>
<path d="M737.273 90.45L802.842 110.037" stroke="#4D2C5E" stroke-opacity="0.1" stroke-width="3" stroke-miterlimit="10" stroke-linecap="round"/>
<path d="M770.218 105.933C769.936 106.874 768.942 107.411 768.001 107.129C767.059 106.848 766.522 105.854 766.804 104.912C767.086 103.97 768.08 103.434 769.021 103.715C769.963 103.997 770.5 104.991 770.218 105.933Z" fill="#4D2C5E" fill-opacity="0.5"/>
<path d="M774.149 113.384L759.448 108.993L757.468 115.625L772.168 120.015L774.149 113.384Z" stroke="#4D2C5E" stroke-opacity="0.1" stroke-width="3" stroke-miterlimit="10" stroke-linecap="round"/>
<path d="M752.016 114.376L777.394 121.956" stroke="#4D2C5E" stroke-opacity="0.1" stroke-width="3" stroke-miterlimit="10" stroke-linecap="round"/>
<path d="M1297.29 64.2266C1313.56 64.2266 1326.75 57.9745 1326.75 50.2622C1326.75 42.5499 1313.56 36.2979 1297.29 36.2979C1281.02 36.2979 1267.83 42.5499 1267.83 50.2622C1267.83 57.9745 1281.02 64.2266 1297.29 64.2266Z" stroke="#4D2C5E" stroke-opacity="0.1" stroke-width="2.25" stroke-miterlimit="10" stroke-linecap="round" stroke-linejoin="round"/>
<path d="M1309.2 57.5411C1317.66 43.6446 1319.18 29.1282 1312.6 25.1178C1306.01 21.1074 1293.81 29.1217 1285.35 43.0182C1276.89 56.9146 1275.37 71.431 1281.96 75.4414C1288.54 79.4518 1300.74 71.4376 1309.2 57.5411Z" stroke="#4D2C5E" stroke-opacity="0.1" stroke-width="2.25" stroke-miterlimit="10" stroke-linecap="round" stroke-linejoin="round"/>
<path d="M1312.59 75.4351C1319.18 71.4247 1317.66 56.9083 1309.2 43.0119C1300.74 29.1154 1288.54 21.1012 1281.95 25.1116C1275.36 29.122 1276.88 43.6384 1285.34 57.5348C1293.8 71.4313 1306 79.4455 1312.59 75.4351Z" stroke="#4D2C5E" stroke-opacity="0.1" stroke-width="2.25" stroke-miterlimit="10" stroke-linecap="round" stroke-linejoin="round"/>
<path d="M1297.29 53.9586C1299.33 53.9586 1300.99 52.3036 1300.99 50.262C1300.99 48.2205 1299.33 46.5654 1297.29 46.5654C1295.25 46.5654 1293.59 48.2205 1293.59 50.262C1293.59 52.3036 1295.25 53.9586 1297.29 53.9586Z" stroke="#4D2C5E" stroke-opacity="0.1" stroke-width="2.25" stroke-miterlimit="10" stroke-linecap="round" stroke-linejoin="round"/>
<path d="M1307.65 490.982L1283.33 496.597L1282.23 491.856C1281.98 490.756 1282.66 489.663 1283.76 489.406L1304.11 484.706C1305.21 484.455 1306.3 485.136 1306.56 486.235L1307.65 490.982Z" stroke="#4D2C5E" stroke-opacity="0.1" stroke-width="2.25" stroke-miterlimit="10" stroke-linecap="round"/>
<path d="M1299.66 465.483C1310.38 456.837 1312.06 441.137 1303.42 430.415C1294.77 419.692 1279.07 418.009 1268.35 426.654C1257.63 435.299 1255.94 451 1264.59 461.722C1273.23 472.444 1288.94 474.128 1299.66 465.483Z" stroke="#4D2C5E" stroke-opacity="0.1" stroke-width="2.25" stroke-miterlimit="10"/>
<path d="M1295.61 468.132L1272.35 424.012L1269.45 418.658C1254.29 426.65 1248.48 445.418 1256.47 460.58C1264.46 475.741 1283.23 481.551 1298.39 473.559L1295.55 468.168" stroke="#4D2C5E" stroke-opacity="0.1" stroke-width="2.25" stroke-miterlimit="10" stroke-linecap="round" stroke-linejoin="round"/>
<path d="M1277.48 433.68C1285.09 429.665 1290.12 424.24 1288.71 421.563C1287.3 418.886 1279.98 419.971 1272.37 423.985C1264.75 428 1259.72 433.425 1261.14 436.102C1262.55 438.779 1269.86 437.694 1277.48 433.68Z" stroke="#4D2C5E" stroke-opacity="0.1" stroke-width="2.25" stroke-miterlimit="10"/>
<path d="M1279.27 470.555C1284.64 471.591 1290.39 470.885 1295.61 468.132C1300.83 465.379 1304.67 461.035 1306.85 456.016C1301.47 454.98 1295.72 455.686 1290.5 458.439C1285.28 461.192 1281.45 465.536 1279.27 470.555Z" stroke="#4D2C5E" stroke-opacity="0.1" stroke-width="2.25" stroke-miterlimit="10"/>
<path d="M1295.63 468.105C1301.72 464.893 1301.45 452.414 1295.03 440.23C1288.6 428.046 1278.46 420.773 1272.37 423.984C1266.28 427.195 1266.55 439.675 1272.97 451.859C1279.39 464.042 1289.54 471.316 1295.63 468.105Z" stroke="#4D2C5E" stroke-opacity="0.1" stroke-width="2.25" stroke-miterlimit="10"/>
<path d="M1261.92 457.701L1306.04 434.443" stroke="#4D2C5E" stroke-opacity="0.1" stroke-width="2.25" stroke-miterlimit="10"/>
<path d="M1291.23 476.275L1293.8 487.014" stroke="#4D2C5E" stroke-opacity="0.1" stroke-width="2.25" stroke-miterlimit="10"/>
<path d="M1280.41 497.597L1311.42 490.16" stroke="#4D2C5E" stroke-opacity="0.1" stroke-width="2.25" stroke-miterlimit="10" stroke-linecap="round"/>
<path d="M1324.3 335.268L1337.28 322.289L1301.31 286.326L1288.34 299.305L1324.3 335.268Z" stroke="#4D2C5E" stroke-opacity="0.1" stroke-width="2.25" stroke-miterlimit="10" stroke-linecap="round" stroke-linejoin="round"/>
<path d="M1340.79 338.779L1337.27 322.286L1324.29 335.265L1340.79 338.779Z" stroke="#4D2C5E" stroke-opacity="0.1" stroke-width="2.25" stroke-miterlimit="10" stroke-linecap="round" stroke-linejoin="round"/>
<path d="M1339.15 331.084L1333.08 337.139" stroke="#4D2C5E" stroke-opacity="0.1" stroke-width="2.25" stroke-miterlimit="10" stroke-linecap="round" stroke-linejoin="round"/>
<path d="M1284.51 289.41L1291.41 282.51C1293.09 280.83 1295.81 280.83 1297.49 282.51L1301.31 286.326L1288.33 299.305L1284.51 295.489C1282.83 293.809 1282.83 291.084 1284.51 289.41Z" stroke="#4D2C5E" stroke-opacity="0.1" stroke-width="2.25" stroke-miterlimit="10" stroke-linecap="round" stroke-linejoin="round"/>
<path d="M1304.81 289.827L1291.83 302.812" stroke="#4D2C5E" stroke-opacity="0.1" stroke-width="2.25" stroke-miterlimit="10" stroke-linecap="round" stroke-linejoin="round"/>
<path d="M1330.78 328.776L1298.32 296.323" stroke="#4D2C5E" stroke-opacity="0.1" stroke-width="2.25" stroke-miterlimit="10" stroke-linecap="round" stroke-linejoin="round"/>
<path d="M309.77 492.154L307.381 497.599" stroke="#4D2C5E" stroke-opacity="0.1" stroke-width="3" stroke-miterlimit="10" stroke-linecap="round" stroke-linejoin="round"/>
<path d="M327.109 499.76L324.72 505.205" stroke="#4D2C5E" stroke-opacity="0.1" stroke-width="3" stroke-miterlimit="10" stroke-linecap="round" stroke-linejoin="round"/>
<path d="M344.452 507.362L342.063 512.807" stroke="#4D2C5E" stroke-opacity="0.1" stroke-width="3" stroke-miterlimit="10" stroke-linecap="round" stroke-linejoin="round"/>
<path d="M298.166 487.065L296.971 489.792" stroke="#4D2C5E" stroke-opacity="0.1" stroke-width="3" stroke-miterlimit="10" stroke-linecap="round" stroke-linejoin="round"/>
<path d="M303.968 489.614L302.774 492.332" stroke="#4D2C5E" stroke-opacity="0.1" stroke-width="3" stroke-miterlimit="10" stroke-linecap="round" stroke-linejoin="round"/>
<path d="M315.539 494.683L314.344 497.41" stroke="#4D2C5E" stroke-opacity="0.1" stroke-width="3" stroke-miterlimit="10" stroke-linecap="round" stroke-linejoin="round"/>
<path d="M321.336 497.227L320.146 499.95" stroke="#4D2C5E" stroke-opacity="0.1" stroke-width="3" stroke-miterlimit="10" stroke-linecap="round" stroke-linejoin="round"/>
<path d="M332.911 502.3L331.717 505.027" stroke="#4D2C5E" stroke-opacity="0.1" stroke-width="3" stroke-miterlimit="10" stroke-linecap="round" stroke-linejoin="round"/>
<path d="M350.535 510.03L349.345 512.753" stroke="#4D2C5E" stroke-opacity="0.1" stroke-width="3" stroke-miterlimit="10" stroke-linecap="round" stroke-linejoin="round"/>
<path d="M338.709 504.844L337.519 507.567" stroke="#4D2C5E" stroke-opacity="0.1" stroke-width="3" stroke-miterlimit="10" stroke-linecap="round" stroke-linejoin="round"/>
<path d="M340.701 553.567L283.447 480.615L358.298 513.432L340.701 553.567Z" stroke="#4D2C5E" stroke-opacity="0.1" stroke-width="3" stroke-miterlimit="10" stroke-linecap="round" stroke-linejoin="round"/>
<path d="M337.783 530.543L322.121 510.585L342.595 519.559L337.783 530.543Z" stroke="#4D2C5E" stroke-opacity="0.1" stroke-width="3" stroke-miterlimit="10" stroke-linecap="round" stroke-linejoin="round"/>
<path d="M480.58 17.9999L459 28.4341L502.013 117.395L523.593 106.961L480.58 17.9999Z" stroke="#4D2C5E" stroke-opacity="0.1" stroke-width="3" stroke-miterlimit="10" stroke-linecap="round" stroke-linejoin="round"/>
<path d="M485.73 28.6753L474.945 33.8878" stroke="#4D2C5E" stroke-opacity="0.1" stroke-width="3" stroke-miterlimit="10" stroke-linecap="round" stroke-linejoin="round"/>
<path d="M495.697 49.2852L484.905 54.5051" stroke="#4D2C5E" stroke-opacity="0.1" stroke-width="3" stroke-miterlimit="10" stroke-linecap="round" stroke-linejoin="round"/>
<path d="M505.665 69.8953L494.872 75.1153" stroke="#4D2C5E" stroke-opacity="0.1" stroke-width="3" stroke-miterlimit="10" stroke-linecap="round" stroke-linejoin="round"/>
<path d="M515.625 90.5127L504.84 95.7252" stroke="#4D2C5E" stroke-opacity="0.1" stroke-width="3" stroke-miterlimit="10" stroke-linecap="round" stroke-linejoin="round"/>
<path d="M489.03 35.5002L483.637 38.1027" stroke="#4D2C5E" stroke-opacity="0.1" stroke-width="3" stroke-miterlimit="10" stroke-linecap="round" stroke-linejoin="round"/>
<path d="M492.36 42.3928L486.967 45.0028" stroke="#4D2C5E" stroke-opacity="0.1" stroke-width="3" stroke-miterlimit="10" stroke-linecap="round" stroke-linejoin="round"/>
<path d="M499.012 56.1477L493.62 58.7502" stroke="#4D2C5E" stroke-opacity="0.1" stroke-width="3" stroke-miterlimit="10" stroke-linecap="round" stroke-linejoin="round"/>
<path d="M502.342 63.0403L496.95 65.6503" stroke="#4D2C5E" stroke-opacity="0.1" stroke-width="3" stroke-miterlimit="10" stroke-linecap="round" stroke-linejoin="round"/>
<path d="M508.995 76.7952L503.602 79.3977" stroke="#4D2C5E" stroke-opacity="0.1" stroke-width="3" stroke-miterlimit="10" stroke-linecap="round" stroke-linejoin="round"/>
<path d="M512.332 83.6877L506.932 86.2977" stroke="#4D2C5E" stroke-opacity="0.1" stroke-width="3" stroke-miterlimit="10" stroke-linecap="round" stroke-linejoin="round"/>
<path d="M30.7506 468.473L7.32808 479.476C6.07558 480.068 4.58312 479.528 3.99062 478.276L2.49062 475.081C1.89812 473.828 2.4381 472.336 3.6906 471.743L27.1131 460.741C28.3656 460.148 29.8581 460.688 30.4506 461.941L31.9506 465.136C32.5431 466.396 32.0031 467.888 30.7506 468.473Z" stroke="#4D2C5E" stroke-opacity="0.1" stroke-width="3" stroke-miterlimit="10" stroke-linecap="round"/>
<path d="M39.8481 493.463L28.3881 469.598L9.84805 478.501L21.3081 502.366L28.5381 542.296C30.9156 547.253 36.863 549.338 41.813 546.961L61.8306 537.346C66.7881 534.968 68.8731 529.021 66.4956 524.071L39.8481 493.463Z" stroke="#4D2C5E" stroke-opacity="0.1" stroke-width="3" stroke-miterlimit="10" stroke-linecap="round"/>
<path d="M24.563 520.373C24.563 520.373 28.3881 514.178 38.5581 514.531C48.7281 514.883 50.438 505.621 50.438 505.621" stroke="#4D2C5E" stroke-opacity="0.1" stroke-width="3" stroke-miterlimit="10" stroke-linecap="round"/>
<path d="M63.36 82.47C72.2573 82.47 79.47 75.2573 79.47 66.36C79.47 57.4627 72.2573 50.25 63.36 50.25C54.4627 50.25 47.25 57.4627 47.25 66.36C47.25 75.2573 54.4627 82.47 63.36 82.47Z" stroke="#4D2C5E" stroke-opacity="0.1" stroke-width="3" stroke-miterlimit="10" stroke-linecap="round" stroke-linejoin="round"/>
<path d="M85.9425 98.385C89.5006 98.385 92.385 95.5006 92.385 91.9425C92.385 88.3844 89.5006 85.5 85.9425 85.5C82.3844 85.5 79.5 88.3844 79.5 91.9425C79.5 95.5006 82.3844 98.385 85.9425 98.385Z" stroke="#4D2C5E" stroke-opacity="0.1" stroke-width="3" stroke-miterlimit="10" stroke-linecap="round" stroke-linejoin="round"/>
</svg>
