<svg width="17" height="17" viewBox="0 0 17 17" fill="none" xmlns="http://www.w3.org/2000/svg">
<mask id="mask0_216_138" style="mask-type:luminance" maskUnits="userSpaceOnUse" x="0" y="0" width="17" height="17">
<rect x="0.232727" y="0.367676" width="16.5942" height="16.5942" fill="white"/>
</mask>
<g mask="url(#mask0_216_138)">
<path fill-rule="evenodd" clip-rule="evenodd" d="M15.3095 7.31057H14.7526V7.28188H8.52977V10.0476H12.4374C11.8673 11.6575 10.3354 12.8133 8.52977 12.8133C6.23874 12.8133 4.38123 10.9558 4.38123 8.66472C4.38123 6.37369 6.23874 4.51618 8.52977 4.51618C9.58731 4.51618 10.5494 4.91513 11.282 5.5668L13.2377 3.61111C12.0028 2.46023 10.351 1.75049 8.52977 1.75049C4.71139 1.75049 1.61554 4.84634 1.61554 8.66472C1.61554 12.4831 4.71139 15.579 8.52977 15.579C12.3482 15.579 15.444 12.4831 15.444 8.66472C15.444 8.20112 15.3963 7.74859 15.3095 7.31057Z" fill="#FFC107"/>
<path fill-rule="evenodd" clip-rule="evenodd" d="M2.41266 5.44649L4.68433 7.11248C5.29901 5.59065 6.78764 4.51618 8.52968 4.51618C9.58721 4.51618 10.5493 4.91513 11.2819 5.5668L13.2376 3.61111C12.0027 2.46023 10.3509 1.75049 8.52968 1.75049C5.87392 1.75049 3.57079 3.24984 2.41266 5.44649Z" fill="#FF3D00"/>
<path fill-rule="evenodd" clip-rule="evenodd" d="M8.52985 15.5789C10.3158 15.5789 11.9386 14.8954 13.1655 13.7839L11.0255 11.9731C10.3313 12.4989 9.46845 12.8132 8.52985 12.8132C6.73145 12.8132 5.20445 11.6665 4.62918 10.0662L2.37445 11.8034C3.51876 14.0425 5.84263 15.5789 8.52985 15.5789Z" fill="#4CAF50"/>
<path fill-rule="evenodd" clip-rule="evenodd" d="M15.3094 7.31043H14.7525V7.28174H8.52966V10.0474H12.4372C12.1634 10.8208 11.666 11.4877 11.0243 11.9734C11.0247 11.973 11.025 11.973 11.0254 11.9727L13.1653 13.7835C13.0139 13.9211 15.4439 12.1217 15.4439 8.66458C15.4439 8.20099 15.3962 7.74845 15.3094 7.31043Z" fill="#1976D2"/>
</g>
</svg>
