<svg width="310" height="262" viewBox="0 0 310 262" fill="none" xmlns="http://www.w3.org/2000/svg">
<mask id="mask0_216_181" style="mask-type:luminance" maskUnits="userSpaceOnUse" x="0" y="0" width="310" height="262">
<rect y="0.555664" width="309.727" height="261.076" fill="white"/>
</mask>
<g mask="url(#mask0_216_181)">
<circle cx="158.075" cy="131.094" r="130.538" fill="#F1F0FF"/>
<rect x="150.476" y="74.1838" width="80.045" height="123.952" fill="white"/>
<path d="M134.433 149.839H216.505" stroke="black" stroke-width="0.732028"/>
<path d="M134.433 157.944H216.505" stroke="black" stroke-width="0.732028"/>
<path d="M134.433 166.05H216.505" stroke="black" stroke-width="0.732028"/>
<path d="M134.433 174.156H216.505" stroke="black" stroke-width="0.732028"/>
<ellipse cx="190.499" cy="110.322" rx="20.9404" ry="20.9404" fill="#F2F2F2"/>
<rect opacity="0.7" x="216.505" y="118.26" width="33.0986" height="30.7349" fill="#98B9F2"/>
<path d="M225.098 134.16L229.694 132.359V133.067L225.936 134.486L229.694 135.91V136.617L225.098 134.813V134.16ZM233.764 130.767H234.361L232.529 136.543H231.932L233.764 130.767ZM241.12 134.821L236.524 136.617V135.91L240.279 134.486L236.524 133.067V132.359L241.12 134.16V134.821Z" fill="white"/>
<rect x="12.1693" y="13.2212" width="178.667" height="117.535" stroke="black" stroke-width="0.732028"/>
<path d="M12.1694 19.4698H190.836" stroke="black" stroke-width="0.732028"/>
<rect x="25.1722" y="29.9392" width="53.7015" height="53.7015" stroke="black" stroke-width="0.732028"/>
<path d="M89.1749 34.6683H171.247" stroke="black" stroke-width="0.732028"/>
<path d="M89.1749 42.774H171.247" stroke="black" stroke-width="0.732028"/>
<path d="M89.1749 50.8797H171.247" stroke="black" stroke-width="0.732028"/>
<path d="M89.1749 58.9857H171.247" stroke="black" stroke-width="0.732028"/>
<path opacity="0.44" fill-rule="evenodd" clip-rule="evenodd" d="M52.0232 44.1245L37.3988 69.4527H66.6477L52.0232 44.1245Z" fill="#918EF4"/>
<ellipse cx="16.0534" cy="16.4298" rx="1.51969" ry="1.51969" fill="#AB8DE5"/>
<circle cx="21.2882" cy="16.4298" r="1.51969" fill="#73E5E2"/>
<circle cx="26.523" cy="16.4298" r="1.51969" fill="#50B89D"/>
<path fill-rule="evenodd" clip-rule="evenodd" d="M90.863 109.056L95.9293 104.581H90.762L90.863 109.056Z" fill="#AB8DE5"/>
<path fill-rule="evenodd" clip-rule="evenodd" d="M85.7974 96.4749C85.7974 94.0966 86.6382 92.0667 88.3198 90.385C90.0015 88.7034 92.0314 87.8625 94.4097 87.8625H116.363C118.741 87.8625 120.771 88.7034 122.453 90.385C124.135 92.0667 124.975 94.0966 124.975 96.4749C124.975 98.8531 124.135 100.883 122.453 102.565C120.771 104.246 118.741 105.087 116.363 105.087H94.4097C92.0314 105.087 90.0015 104.246 88.3198 102.565C86.6382 100.883 85.7974 98.8531 85.7974 96.4749Z" fill="#AB8DE5"/>
<circle cx="100.152" cy="96.4748" r="1.51969" fill="white"/>
<ellipse cx="105.387" cy="96.4748" rx="1.51969" ry="1.51969" fill="white"/>
<ellipse cx="110.621" cy="96.4748" rx="1.51969" ry="1.51969" fill="white"/>
<path fill-rule="evenodd" clip-rule="evenodd" d="M251.292 58.3938L246.226 53.9189H251.393L251.292 58.3938Z" fill="#98B9F2"/>
<path fill-rule="evenodd" clip-rule="evenodd" d="M256.358 45.8132C256.358 48.1915 255.518 50.2214 253.836 51.9031C252.154 53.5847 250.124 54.4255 247.746 54.4255H225.793C223.414 54.4255 221.384 53.5847 219.703 51.9031C218.021 50.2214 217.18 48.1915 217.18 45.8132C217.18 43.435 218.021 41.4051 219.703 39.7234C221.384 38.0418 223.414 37.2009 225.793 37.2009L247.746 37.2009C250.124 37.2009 252.154 38.0418 253.836 39.7234C255.518 41.4051 256.358 43.435 256.358 45.8132Z" fill="#98B9F2"/>
<ellipse cx="242.004" cy="45.8134" rx="1.51969" ry="1.51969" fill="white"/>
<ellipse cx="236.768" cy="45.8134" rx="1.51969" ry="1.51969" fill="white"/>
<ellipse cx="231.534" cy="45.8134" rx="1.51969" ry="1.51969" fill="white"/>
<ellipse cx="248.59" cy="14.9101" rx="1.51969" ry="1.51969" fill="#918EF4"/>
<ellipse cx="251.799" cy="21.1579" rx="1.51969" ry="1.51969" fill="#918EF4"/>
<ellipse cx="216.842" cy="82.7968" rx="2.36445" ry="2.36445" fill="#918EF4"/>
<ellipse cx="230.69" cy="90.9025" rx="2.36445" ry="2.36445" fill="#918EF4"/>
<ellipse cx="17.9114" cy="93.6044" rx="2.36445" ry="2.36445" fill="#F98B67"/>
<path fill-rule="evenodd" clip-rule="evenodd" d="M222.313 201.598V201.261L221.503 200.248L219.628 197.971L217.636 195.56C217.636 195.56 215.717 194.233 215.224 194.003C213.465 193.093 211.523 192.593 209.544 192.539C208.244 192.539 203.383 192.735 203.374 193.552C203.374 194.764 210.181 199.354 215.171 201.583C217.362 201.598 222.313 201.598 222.313 201.598Z" fill="#1F161E"/>
<path fill-rule="evenodd" clip-rule="evenodd" d="M221.283 201.598C214.356 196.268 200.215 167.199 203.842 156.425C211.563 160.359 220.034 173.927 224.029 185.383C224.244 186.129 224.417 186.887 224.546 187.652L226.168 195.082L226.559 201.611L221.283 201.598Z" fill="#6F9CEB"/>
<path fill-rule="evenodd" clip-rule="evenodd" d="M226.012 201.598C223.675 199.7 222.929 194.08 222.908 191.983C222.871 188.069 223.472 185.184 226.82 180.878C230.167 176.573 229.275 169.429 233.72 164.609C238.165 159.789 241.11 158.445 246.384 158.445C251.658 158.445 253.338 166.997 253.307 169.148C253.247 177.828 247.778 179.058 244.442 183.198C242.02 186.204 241.831 188.663 241.098 190.068C237.167 197.64 233.972 200.488 231.607 201.599" fill="#918EF4"/>
<path d="M227.302 200.969C227.369 186.166 242.967 163.929 246.303 160.599" stroke="white" stroke-width="0.292811" stroke-linecap="round" stroke-linejoin="round"/>
<path d="M228.142 194.242C226.416 192.361 224.848 187.028 225.082 185.643" stroke="white" stroke-width="0.292811" stroke-linecap="round" stroke-linejoin="round"/>
<path d="M223.722 200.321C221.277 195.987 209.675 174.858 205.349 159.295" stroke="white" stroke-width="0.292811" stroke-linecap="round" stroke-linejoin="round"/>
<path fill-rule="evenodd" clip-rule="evenodd" d="M231.622 201.598H238.89L232.814 224.227H216.555L210.574 201.598H231.622" fill="#B37361"/>
<path d="M205.75 194.009C209.294 194.252 213.752 194.414 216.896 196.558" stroke="white" stroke-width="0.292811" stroke-linecap="round" stroke-linejoin="round"/>
<path fill-rule="evenodd" clip-rule="evenodd" d="M261.913 108.972C261.059 113.049 254.851 163.616 256.88 175.693C258.909 187.771 292.006 213.078 293.455 213.521C295.143 212.282 297.627 208.218 297.627 208.218C297.627 208.218 273.36 180.088 272.898 178.96C272.435 177.832 278.214 112.688 278.214 112.688L261.913 108.972Z" fill="#7472C1"/>
<path fill-rule="evenodd" clip-rule="evenodd" d="M301.434 118.175L276.674 219.164H268.335L276.786 113.812L301.434 118.175Z" fill="#AB8DE5"/>
<path fill-rule="evenodd" clip-rule="evenodd" d="M283.85 60.3538C287.268 60.3538 305.098 60.9313 308.319 67.2063C311.541 73.4812 308.505 102.49 306.503 103.611C305.422 104.216 305.128 103.628 304.814 104.856C304.5 106.084 301.436 118.173 301.436 118.173C299.49 118.227 271.13 113.954 261.92 108.96C261.974 107.569 262.42 103.961 262.42 103.684C261.197 104.184 259.718 104.289 259.312 103.684C255.719 98.2428 261.075 69.876 264.919 64.1676C266.552 61.7219 278.36 60.3706 283.85 60.3538Z" fill="#6F9CEB"/>
<path fill-rule="evenodd" clip-rule="evenodd" d="M295.588 104.395C296.425 104.395 303.637 109.462 303.018 111.951C303.525 109.952 305.119 103.774 305.119 103.774C304.434 103.906 296.203 104.406 295.588 104.395Z" fill="#1F161E"/>
<path fill-rule="evenodd" clip-rule="evenodd" d="M288.262 63.6637C288.262 64.7617 279.578 64.7617 279.578 63.6637V52.5178H288.262V63.6637Z" fill="#F8CDBA"/>
<path fill-rule="evenodd" clip-rule="evenodd" d="M283.28 55.1553C283.956 55.1553 288.262 57.0586 288.262 58.1208V52.5178C287.188 52.5178 283.28 55.1553 283.28 55.1553Z" fill="#1F161E"/>
<circle cx="282.091" cy="47.5225" r="8.44687" fill="#F8CDBA"/>
<path fill-rule="evenodd" clip-rule="evenodd" d="M279.234 35.1746C274.898 35.1746 272.196 37.897 272.196 41.3858C272.196 44.2868 272.899 45.9288 273.726 46.3438C274.249 43.527 275.387 42.2233 276.33 41.6625C277.062 42.2233 278.316 43.5812 279.99 43.9999C281.664 44.4186 286.025 44.3374 289.548 46.898C290.699 45.8512 291.848 44.4896 291.848 42.8857C291.848 41.2819 291.139 39.2688 286.967 38.1063C284.213 37.3392 283.828 35.1746 279.234 35.1746Z" fill="#1F161E"/>
<ellipse cx="274.199" cy="49.2618" rx="1.47943" ry="0.770093" fill="#FA9E9F"/>
<ellipse cx="283.503" cy="49.2618" rx="1.47943" ry="0.770093" fill="#FA9E9F"/>
<path d="M277.813 47.6646C277.536 48.0598 276.124 49.7179 277.614 50.387" stroke="#1F161E" stroke-width="0.732028" stroke-linecap="round"/>
<path d="M280.595 52.3217C281.207 52.1712 281.74 51.7963 282.088 51.2712" stroke="#1F161E" stroke-width="0.732028" stroke-linecap="round"/>
<circle cx="289.9" cy="48.4955" r="1.95232" fill="#F8CDBA"/>
<path d="M295.783 76.9741C295.631 78.8386 295.037 88.0519 295.26 89.2649C292.426 90.2509 266.481 102.555 261.992 103.905" stroke="#1F161E" stroke-width="0.732028" stroke-linecap="round"/>
<path d="M265.65 74.0657C265.052 76.1527 263.04 85.6266 264.455 90.0239" stroke="#1F161E" stroke-width="0.732028" stroke-linecap="round"/>
<path d="M272.274 99.5959C273.625 100.548 286.574 106.276 304.478 104.115" stroke="#1F161E" stroke-width="0.732028" stroke-linecap="round"/>
<path fill-rule="evenodd" clip-rule="evenodd" d="M271.035 90.0275C271.903 90.1659 269.072 87.9047 267.468 88.7472C265.864 89.5898 263.703 93.3949 264.145 94.2762C264.265 94.6004 264.527 94.8524 264.855 94.9614C265.183 95.0704 265.543 95.0246 265.834 94.837C266.268 94.5566 269.521 89.7838 271.035 90.0275Z" fill="#F8CDBA"/>
<path fill-rule="evenodd" clip-rule="evenodd" d="M297.351 208.633C297.813 208.971 301.917 211.747 301.951 213.497C301.984 215.246 298.127 221.046 297.351 221.211C296.574 221.376 296.02 220.721 296.02 219.549C296.02 218.377 297.484 216.324 297.29 215.412C297.096 214.5 295.199 212.831 294.226 212.801" fill="#EBEBEB" fill-opacity="0.25098"/>
<path fill-rule="evenodd" clip-rule="evenodd" d="M275.881 219.164C275.881 219.969 276.347 225.014 275.415 225.483C274.482 225.952 264.195 226.23 263.728 225.763C263.262 225.297 262.979 224.315 263.391 224.034C263.803 223.754 267.783 222.957 268.322 222.586C269.116 221.633 269.483 220.395 269.335 219.164" fill="#EBEBEB" fill-opacity="0.25098"/>
<rect x="8.78516" y="181.701" width="65.313" height="33.1294" fill="#B37361"/>
<path fill-rule="evenodd" clip-rule="evenodd" d="M106.275 166.175C106.559 167.864 111.375 206.471 112.156 207.109C112.936 207.747 121.22 209.162 121.93 208.102C122.072 206.413 122.267 179.488 122.706 177.08" fill="#1F161E"/>
<path fill-rule="evenodd" clip-rule="evenodd" d="M13.0916 158.119C9.7514 156.475 16.7159 189.081 35.0452 189.081C53.3744 189.081 84.2272 161.16 89.2225 161.16C100.25 161.16 126.354 182.809 128.401 182.809C129.968 181.242 133.102 178.5 133.102 177.405C133.102 176.311 108.109 135.187 89.4077 135.187C82.157 135.197 20.6337 161.845 13.0916 158.119Z" fill="#7472C1"/>
<path fill-rule="evenodd" clip-rule="evenodd" d="M23.4069 158.675C27.0714 157.844 31.6312 155.693 35.6669 153.494C24.6865 157.081 15.6891 159.404 13.0919 158.121C11.3218 157.25 12.4433 165.977 16.6056 174.384C15.8509 172.757 14.777 160.646 23.4069 158.675Z" fill="#1F161E"/>
<path fill-rule="evenodd" clip-rule="evenodd" d="M31.4847 101.473C34.3726 101.551 49.4055 101.107 53.5261 105.033C56.5823 107.944 66.0869 132.981 67.5524 141.773C61.1692 145.018 15.1246 167.063 0.878627 157.37C0.564587 149.838 2.02718 119.897 11.3466 104.195C14.7535 101.925 28.7089 101.402 31.4847 101.473Z" fill="white"/>
<path fill-rule="evenodd" clip-rule="evenodd" d="M37.3415 94.3096H28.5571V103.746C28.5571 106.111 37.3415 106.089 37.3415 103.746V94.3096Z" fill="#F8CDBA"/>
<path fill-rule="evenodd" clip-rule="evenodd" d="M28.5601 100.007C28.5601 98.96 31.4611 96.3291 33.2545 96.4199C33.2985 95.2545 29.1552 93.5796 29.1552 93.5796L28.5571 95.1901L28.5601 100.007Z" fill="#1F161E"/>
<path fill-rule="evenodd" clip-rule="evenodd" d="M46.538 94.3093C46.7353 93.3952 46.8349 92.4628 46.8352 91.5276C46.8352 84.5631 41.394 78.9163 34.6762 78.9163C27.9584 78.9163 22.5172 84.5631 22.5172 91.5276C22.5172 92.4593 22.6166 93.3918 22.8137 94.3059L46.538 94.3093Z" fill="#1F161E"/>
<path fill-rule="evenodd" clip-rule="evenodd" d="M43.3332 85.8082C41.8436 85.582 40.3575 84.41 39.321 83.6436C33.4106 87.9735 29.6246 88.0284 29.2154 88.0284C28.8062 88.0284 27.1415 90.4199 26.3751 90.6901L26.3077 90.6498C26.9185 94.0921 29.4229 96.8931 32.7756 97.8839C36.1284 98.8746 39.753 97.8846 42.1367 95.3272C44.5203 92.7698 45.2532 89.0845 44.0294 85.8097C43.7985 85.8383 43.5649 85.8383 43.334 85.8096L43.3332 85.8082Z" fill="#F8CDBA"/>
<circle cx="28.091" cy="76.9026" r="3.58694" fill="#1F161E"/>
<path d="M29.6883 87.8384C28.8813 87.874 28.2454 88.5386 28.2454 89.3464C28.2454 90.1541 28.8813 90.8187 29.6883 90.8543" stroke="#1F161E" stroke-width="0.732028" stroke-linecap="round"/>
<path d="M41.1855 88.031C41.6248 88.6218 42.766 89.659 41.1855 90.7563" stroke="#1F161E" stroke-width="0.732028" stroke-linecap="round"/>
<path d="M36.393 91.5466C36.3526 92.3207 36.8107 93.0341 37.5313 93.3196" stroke="#1F161E" stroke-width="0.732028" stroke-linecap="round"/>
<ellipse cx="33.4509" cy="90.9288" rx="1.39158" ry="0.722511" fill="#FA9E9F"/>
<ellipse cx="43.7959" cy="90.9288" rx="1.39158" ry="0.722511" fill="#FA9E9F"/>
<path fill-rule="evenodd" clip-rule="evenodd" d="M53.209 127.57L62.595 125.155C63.4969 126.688 67.8876 141.755 67.8876 141.755L53.3993 147.862C53.5875 145.008 54.1577 131.938 53.209 127.57Z" fill="#F8CDBA"/>
<path d="M20.2991 125.21C19.9784 127.738 19.4704 130.238 18.7794 132.691" stroke="#1F161E" stroke-width="0.732028" stroke-linecap="round"/>
<path d="M53.2091 127.571C52.9829 125.784 51.6587 115.717 49.4026 110.417" stroke="#1F161E" stroke-width="0.732028" stroke-linecap="round"/>
<path fill-rule="evenodd" clip-rule="evenodd" d="M53.209 127.57L62.595 125.155C63.4969 126.688 67.8876 141.755 67.8876 141.755L53.3993 147.862C53.5875 145.008 54.1577 131.938 53.209 127.57Z" fill="#F8CDBA"/>
<path fill-rule="evenodd" clip-rule="evenodd" d="M128.681 182.011C128.891 182.349 131.687 185.78 132.677 185.818C133.666 185.855 139.675 181.785 139.411 180.913C139.148 180.041 135.378 180.609 134.73 180.302C133.774 179.699 132.974 178.879 132.396 177.907" fill="#1F161E"/>
<path fill-rule="evenodd" clip-rule="evenodd" d="M113.904 207.468C113.831 207.842 113.452 212.264 114.137 212.98C114.822 213.696 121.97 214.939 122.388 214.125C122.807 213.311 119.687 211.105 119.446 210.437C119.181 209.34 119.181 208.196 119.446 207.1" fill="#1F161E"/>
<path fill-rule="evenodd" clip-rule="evenodd" d="M102.695 142.702H70.8898L78.4619 122.636H110.267L102.695 142.702Z" fill="#969696"/>
<rect x="44.3873" y="141.945" width="31.8051" height="0.756185" fill="#969696"/>
<path fill-rule="evenodd" clip-rule="evenodd" d="M18.7797 132.694C18.1684 134.977 15.1993 144.772 16.4086 146.46C17.6179 148.148 47.8997 144.322 56.0025 141.8C58.0661 141.124 59.5961 139.355 60.5111 139.125C62.945 138.712 65.2988 140.2 65.9691 142.576C62.7364 144.143 16.017 167.995 0.880116 157.38C-1.98065 155.33 3.03813 130.337 3.26799 129.077C5.8235 129.384 18.7797 132.694 18.7797 132.694Z" fill="#F8CDBA"/>
<path d="M53.6417 142.408C54.5538 142.188 55.351 141.979 56.0062 141.776C58.0698 141.1 59.5997 139.331 60.5147 139.101C62.9487 138.688 65.3024 140.177 65.9727 142.553" stroke="#1F161E" stroke-width="0.732028" stroke-linecap="round"/>
</g>
</svg>
